<svg width="70" height="70" viewBox="0 0 70 70" fill="none" xmlns="http://www.w3.org/2000/svg">
<g clip-path="url(#clip0_71_2)">
<rect width="70" height="70" rx="11" fill="transparent"/>
<path d="M21.6319 53.5835H21.1758C20.2274 53.5835 19.3806 53.4791 18.6426 53.2612L18.3331 53.1606C17.5208 52.8728 16.8438 52.4249 16.3155 51.813V51.814C15.7903 51.2152 15.4124 50.4703 15.1709 49.5952L15.17 49.5903C14.9401 48.721 14.8292 47.7072 14.8292 46.5562V40.0981C14.8291 38.5295 14.5253 37.5902 14.0557 37.1206L14.0508 37.1157C13.591 36.6414 12.6508 36.3291 11.0616 36.3198L10.6084 36.3169V33.6831L11.0616 33.6802C12.6523 33.6709 13.594 33.363 14.0538 32.896L14.1407 32.8003C14.5632 32.295 14.8291 31.3712 14.8292 29.9019V23.4438C14.8292 22.2928 14.9401 21.279 15.17 20.4097L15.1709 20.4048L15.2676 20.0835C15.4745 19.4514 15.7593 18.894 16.126 18.4175L16.3155 18.186C16.8437 17.5744 17.5211 17.1271 18.3331 16.8394L18.6426 16.7388C19.3806 16.5209 20.2274 16.4165 21.1758 16.4165H21.6319V18.8618L21.1719 18.8579C20.2019 18.8489 19.4631 19.0164 18.9229 19.3228L18.9209 19.3237C18.4008 19.6153 18.0073 20.0753 17.7481 20.7358C17.4927 21.4112 17.3555 22.3079 17.3555 23.4438V30.2837C17.3555 31.1807 17.2572 31.9753 17.0538 32.6597L17.0547 32.6606C16.8554 33.3635 16.509 33.9604 16.0108 34.437L16.0069 34.4409C15.7736 34.6589 15.5037 34.846 15.2022 35.0083C15.5037 35.1685 15.7735 35.3555 16.0069 35.5737L16.1875 35.7554C16.591 36.1911 16.878 36.7206 17.0528 37.3335L17.125 37.5962C17.2808 38.2204 17.3555 38.9291 17.3555 39.7163V46.5562C17.3555 47.6922 17.4927 48.5888 17.7481 49.2642L17.8516 49.5034C18.1076 50.0377 18.4659 50.4212 18.9209 50.6763H18.92C19.4628 50.9754 20.2047 51.142 21.1758 51.1421H21.6319V53.5835ZM59.3917 36.3169L58.9385 36.3198C57.4498 36.3285 56.5237 36.6032 56.0264 37.0308L55.9327 37.1187C55.4704 37.5883 55.171 38.5282 55.1709 40.0981V46.5562C55.1709 47.7061 55.0548 48.7194 54.8155 49.5894L54.8165 49.5903C54.5846 50.4672 54.211 51.2138 53.6846 51.814L53.6836 51.813C53.1554 52.4247 52.479 52.8728 51.667 53.1606C50.8594 53.4469 49.9081 53.5835 48.8243 53.5835H48.3682V51.1421H48.8243C49.8073 51.142 50.5477 50.9742 51.0792 50.6763C51.598 50.3854 51.9854 49.9274 52.2354 49.269L52.2374 49.2642L52.3311 49.0015C52.5357 48.3626 52.6446 47.5517 52.6446 46.5562V39.7163C52.6446 38.8183 52.7378 38.023 52.9317 37.3394L52.9327 37.3335L53.0186 37.0757C53.2323 36.488 53.554 35.9847 53.9893 35.5767L54.1866 35.4028C54.3723 35.2508 54.5775 35.1163 54.7999 34.9966C54.5785 34.8776 54.3745 34.7449 54.1895 34.5962L53.9932 34.4263C53.4936 33.9592 53.142 33.3676 52.9327 32.6665L52.9317 32.6606C52.7378 31.977 52.6446 31.1817 52.6446 30.2837V23.4438C52.6446 22.3064 52.5019 21.4101 52.2374 20.7358L52.2354 20.731C51.9854 20.0726 51.598 19.6146 51.0792 19.3237L51.0743 19.3208C50.5456 19.0166 49.8087 18.8489 48.8282 18.8579L48.3682 18.8618V16.4165H48.8243C49.9081 16.4165 50.8594 16.5531 51.667 16.8394C52.4788 17.1271 53.1555 17.5746 53.6836 18.186H53.6846C54.211 18.7862 54.5846 19.5328 54.8165 20.4097H54.8155C55.055 21.2798 55.1709 22.2935 55.1709 23.4438V29.9019C55.171 31.4671 55.4682 32.414 55.9317 32.895C56.4024 33.364 57.3511 33.6709 58.9385 33.6802L59.3917 33.6831V36.3169Z" fill="#333333" stroke="#333333" stroke-width="0.911686"/>
<path d="M28.8956 35.1279H33.9104M33.9104 35.1279V25.7472C33.9104 25.3328 34.2463 24.9969 34.6607 24.9969H39.1785M33.9104 35.1279V44.3806C33.9104 44.795 34.2463 45.131 34.6607 45.131H39.1785" stroke="#333333" stroke-width="2.251"/>
<rect x="38.1689" y="49.2696" width="8.49295" height="8.81759" rx="1.80489" transform="rotate(-90 38.1689 49.2696)" fill="#333333" stroke="#333333" stroke-width="0.515683"/>
<rect x="20.7196" y="39.1247" width="8.49295" height="8.81759" rx="1.80489" transform="rotate(-90 20.7196 39.1247)" fill="#333333" stroke="#333333" stroke-width="0.515683"/>
<rect x="38.1689" y="29.2232" width="8.49295" height="8.81759" rx="1.80489" transform="rotate(-90 38.1689 29.2232)" fill="#333333" stroke="#333333" stroke-width="0.515683"/>
</g>
<defs>
<clipPath id="clip0_71_2">
<rect width="70" height="70" fill="white"/>
</clipPath>
</defs>
</svg>
